:version 1.10
:name ASF
:units
  mass 1
  length 1
  angle deg
:documentation
  ASF file generated by Kaydara
:root
  axis xyz
  order  tx ty tz rx ry rz
  position 0 0 0
  orientation 0 0 0
:bonedata
  begin
    id 1
    name SpineDummy
    direction 0.999998 -0.00179978 1.38929e-006
    length 3.60008
    axis 0 0 0 xyz
  end
  begin
    id 2
    name Spine
    direction 0.964365 0.262802 0.0305839
    length 8.13928
    axis 1.33928 -1.75354 15.2838 xyz
    dof rx ry rz
  end
  begin
    id 3
    name Spine1
    direction 0.811168 0.572065 0.12144
    length 7.14954
    axis 2.2224 -6.9761 35.2157 xyz
    dof rx ry rz
  end
  begin
    id 4
    name Neck
    direction 0 0 0
    length 0
    axis 2.2224 -6.9761 35.2157 xyz
    dof rx ry rz
  end
  begin
    id 5
    name HeadDummy
    direction 0.810939 0.572387 0.121455
    length 3.55534
    axis 2.2224 -6.9761 35.2157 xyz
  end
  begin
    id 6
    name Head
    direction 0.998226 -0.000232542 0.0595419
    length 7.35666
    axis -3.03688 -3.41352 -0.0133467 xyz
    dof rx ry rz
  end
  begin
    id 7
    name R_ClavicleDummy
    direction 0.531669 -0.194489 -0.824319
    length 2.49392
    axis 2.2224 -6.9761 35.2157 xyz
  end
  begin
    id 8
    name R_Clavicle
    direction -0.155119 0.0480802 -0.986725
    length 4.485
    axis -54.2764 80.6538 162.779 xyz
    dof rx ry rz
  end
  begin
    id 9
    name R_UpperArm
    direction -0.955567 0.200068 -0.216484
    length 10.1122
    axis -72.9943 12.5026 168.175 xyz
    dof rx ry rz
  end
  begin
    id 10
    name R_Forearm
    direction -0.61433 0.385743 0.688332
    length 9.39148
    axis -117.015 -43.4982 147.875 xyz
    dof rx ry rz
  end
  begin
    id 11
    name R_Hand
    direction -0.699429 0.0170333 0.714499
    length 3.66324
    axis -45.0303 -36.7097 175.478 xyz
    dof rx ry rz
  end
  begin
    id 12
    name L_ClavicleDummy
    direction 0.40287 -0.36502 0.839319
    length 2.49392
    axis 2.2224 -6.9761 35.2157 xyz
  end
  begin
    id 13
    name L_Clavicle
    direction -0.231271 -0.0726419 0.970174
    length 4.485
    axis 18.4357 -75.9711 -162.563 xyz
    dof rx ry rz
  end
  begin
    id 14
    name L_UpperArm
    direction -0.917494 0.144359 0.370629
    length 10.1122
    axis 56.0417 -21.7544 171.058 xyz
    dof rx ry rz
  end
  begin
    id 15
    name L_Forearm
    direction -0.496786 0.615074 -0.612281
    length 9.39148
    axis 89.8094 37.7546 128.927 xyz
    dof rx ry rz
  end
  begin
    id 16
    name L_Hand
    direction -0.409932 0.64962 -0.640274
    length 3.66324
    axis -0.424369 32.133 128.52 xyz
    dof rx ry rz
  end
  begin
    id 17
    name L_ThighDummy
    direction -1.84081e-006 1.87549e-006 1
    length 3.13049
    axis 0 0 0 xyz
  end
  begin
    id 18
    name L_Thigh
    direction -0.947739 0.307978 0.083308
    length 17.9961
    axis 173.219 -4.77873 161.998 xyz
    dof rx ry rz
  end
  begin
    id 19
    name L_Calf
    direction -0.728814 -0.684427 0.0197583
    length 13.3367
    axis 167.331 -1.13214 -136.799 xyz
    dof rx ry rz
  end
  begin
    id 20
    name L_Foot
    direction -0.9028 0.418719 0.0981191
    length 5.8674
    axis 163.436 11.5135 -155.37 xyz
    dof rx ry rz
  end
  begin
    id 21
    name L_Toe0
    direction -0.35341 0.886259 0.299411
    length 4.75286
    axis 169.316 -17.4222 111.74 xyz
    dof rx ry rz
  end
  begin
    id 22
    name R_ThighDummy
    direction 9.32778e-007 -8.82053e-007 -1
    length 3.13049
    axis 0 0 0 xyz
  end
  begin
    id 23
    name R_Thigh
    direction -0.925064 0.37528 -0.0585023
    length 17.9961
    axis -178.698 3.35385 157.919 xyz
    dof rx ry rz
  end
  begin
    id 24
    name R_Calf
    direction -0.68969 -0.718776 -0.0876886
    length 13.3367
    axis -160.504 5.03065 -133.817 xyz
    dof rx ry rz
  end
  begin
    id 25
    name R_Foot
    direction -0.857405 0.418858 -0.299022
    length 5.8674
    axis -161.328 4.38911 -154.413 xyz
    dof rx ry rz
  end
  begin
    id 26
    name R_Toe0
    direction -0.100745 0.952789 -0.286433
    length 4.75286
    axis 171.683 16.6445 96.0359 xyz
    dof rx ry rz
  end
:hierarchy
  begin
    root SpineDummy L_ThighDummy R_ThighDummy
    SpineDummy Spine
    Spine Spine1
    Spine1 Neck
    Neck HeadDummy R_ClavicleDummy L_ClavicleDummy
    HeadDummy Head
    R_ClavicleDummy R_Clavicle
    R_Clavicle R_UpperArm
    R_UpperArm R_Forearm
    R_Forearm R_Hand
    L_ClavicleDummy L_Clavicle
    L_Clavicle L_UpperArm
    L_UpperArm L_Forearm
    L_Forearm L_Hand
    L_ThighDummy L_Thigh
    L_Thigh L_Calf
    L_Calf L_Foot
    L_Foot L_Toe0
    R_ThighDummy R_Thigh
    R_Thigh R_Calf
    R_Calf R_Foot
    R_Foot R_Toe0
  end

:SAMPLES-PER-SECOND 30
:FULLY-SPECIFIED
:DEGREES
297
root  3.95001 32.2575 -17.0287 58.6016 -42.4042 -127.49
Spine  -23.6558 -29.615 6.20969
Spine1  -33.6401 39.3424 -40.7844
Neck  3.97569e-016 0 -2.38542e-015
Head  -16.5865 -1.63914 16.2543
R_Clavicle  1.21455 20.9051 4.34677
R_UpperArm  73.7832 46.0744 49.4599
R_Forearm  -4.12176 -17.602 15.2258
R_Hand  -36.1673 28.7313 -111.48
L_Clavicle  1.57642 -11.6285 -5.24618
L_UpperArm  -26.7341 -62.1377 -7.53361
L_Forearm  -20.6627 36.3885 66.7729
L_Hand  0.0188976 -5.56176 -6.85388
L_Thigh  -5.53853 52.5581 27.3042
L_Calf  -28.5842 -9.81059 56.9851
L_Foot  4.8775 16.1389 2.79933
L_Toe0  0.505156 0.0344456 -6.1361
R_Thigh  9.13568 -42.9976 7.2908
R_Calf  -11.2708 10.5509 52.0383
R_Foot  2.25637 7.20356 -3.31834
R_Toe0  -1.78853 -0.271389 -17.3236
298
root  2.23996 32.3484 -16.3308 40.0244 -47.8519 -122.724
Spine  -24.3602 -27.6285 7.66669
Spine1  -35.8564 42.8264 -41.2306
Neck  3.97569e-016 0 -2.38542e-015
Head  -10.5463 -0.729978 14.3518
R_Clavicle  0.870052 26.3503 3.18407
R_UpperArm  70.2774 43.0512 35.1484
R_Forearm  13.8257 -14.4217 14.4804
R_Hand  -35.0029 23.9978 -117.729
L_Clavicle  1.74108 -10.7996 -6.221
L_UpperArm  -22.2554 -59.1414 -16.811
L_Forearm  -28.0568 36.4002 66.77
L_Hand  0.0856034 -7.25621 -4.6245
L_Thigh  -6.56236 53.2235 25.5646
L_Calf  -30.5771 -10.3676 56.8752
L_Foot  3.12548 15.5688 -1.97085
L_Toe0  0.505156 0.0344456 -6.1361
R_Thigh  6.27008 -47.119 15.0757
R_Calf  -10.3967 10.2795 53.1308
R_Foot  2.19593 6.93652 -3.49888
R_Toe0  -1.78853 -0.271371 -17.3236
299
root  0.9852 32.725 -15.1525 18.1025 -52.8037 -114.799
Spine  -21.8921 -23.6221 6.71643
Spine1  -33.8813 42.9794 -39.6942
Neck  3.97569e-016 0 -2.38542e-015
Head  -5.59393 -0.627905 10.1446
R_Clavicle  4.06954 29.2878 10.5516
R_UpperArm  65.7887 43.7048 15.0936
R_Forearm  24.2772 -12.3453 16.064
R_Hand  -32.5253 20.8517 -119.375
L_Clavicle  1.88238 -9.81415 -7.19489
L_UpperArm  -21.3932 -55.0157 -22.4785
L_Forearm  -43.5028 35.9771 66.9846
L_Hand  0.0989453 -6.95486 -5.13478
L_Thigh  -7.9178 52.9167 23.0137
L_Calf  -28.8378 -10.4833 56.8438
L_Foot  0.882519 13.4718 -7.6692
L_Toe0  0.505156 0.0344456 -6.1361
R_Thigh  2.90556 -51.79 22.7009
R_Calf  -7.88916 10.4351 53.5829
R_Foot  1.63713 4.70326 -3.8325
R_Toe0  -1.78853 -0.271353 -17.3236
300
root  0.259541 33.0923 -13.7547 -7.60083 -56.3332 -103.098
Spine  -18.286 -19.3081 4.24645
Spine1  -29.084 40.7456 -35.4178
Neck  3.97569e-016 0 -2.38542e-015
Head  -2.53419 1.17327 5.34805
R_Clavicle  5.19081 27.0887 13.526
R_UpperArm  60.6826 46.0647 1.1184
R_Forearm  29.4777 -12.175 17.4184
R_Hand  -33.9142 21.0729 -121.686
L_Clavicle  1.83891 -10.8202 -6.63288
L_UpperArm  -23.0445 -50.7885 -26.2461
L_Forearm  -58.3742 35.0495 67.7931
L_Hand  0.0105956 -3.43987 -7.50638
L_Thigh  -7.92307 51.889 21.9771
L_Calf  -24.0439 -9.67781 56.8797
L_Foot  -1.39864 10.8388 -13.949
L_Toe0  0.505156 0.0344456 -6.1361
R_Thigh  -1.18606 -56.072 28.4059
R_Calf  -2.7975 10.7423 52.8259
R_Foot  0.70125 1.15862 -3.57303
R_Toe0  -1.78853 -0.271335 -17.3236
301
root  0.0585822 33.3117 -12.3772 -34.6404 -57.9371 -90.9964
Spine  -14.126 -14.2055 3.00395
Spine1  -23.0293 35.3665 -31.5275
Neck  3.97569e-016 0 -2.38542e-015
Head  -2.42966 4.20525 1.95798
R_Clavicle  2.9874 26.0431 8.43399
R_UpperArm  60.2267 44.2682 2.22609
R_Forearm  42.4229 -10.8873 15.5764
R_Hand  -35.3177 18.7612 -128.989
L_Clavicle  1.70258 -12.1385 -5.62716
L_UpperArm  -28.8552 -46.0216 -23.4099
L_Forearm  -68.1658 30.5067 55.7946
L_Hand  0.083078 -10.3565 -11.9731
L_Thigh  -8.06358 50.9275 21.284
L_Calf  -20.5794 -9.18638 56.3689
L_Foot  -2.63489 9.87006 -18.0294
L_Toe0  0.505156 0.0344456 -6.1361
R_Thigh  -5.78153 -59.1577 30.2226
R_Calf  4.95982 11.4331 49.6109
R_Foot  -0.277433 -2.1728 -2.60648
R_Toe0  -1.78853 -0.271317 -17.3236
302
root  0.307486 33.3497 -11.2691 -61.3467 -59.1412 -80.4903
Spine  -9.20324 -7.74832 4.58649
Spine1  -16.2358 26.4333 -29.5451
Neck  3.97569e-016 0 -2.38542e-015
Head  -5.32815 6.82154 -1.28945
R_Clavicle  0.829627 25.8618 3.14927
R_UpperArm  62.4141 36.2737 5.24345
R_Forearm  63.4946 -5.49424 11.0671
R_Hand  -23.3765 9.2001 -129.487
L_Clavicle  1.58689 -12.7866 -4.9712
L_UpperArm  -40.4098 -36.3474 -8.9115
L_Forearm  -86.5485 9.14947 18.8818
L_Hand  11.1466 -32.7549 -44.3353
L_Thigh  -9.31829 49.9291 19.2531
L_Calf  -18.6215 -9.32845 55.5306
L_Foot  -3.51674 8.39869 -20.9525
L_Toe0  0.505156 0.0344456 -6.1361
R_Thigh  -7.17017 -60.7974 27.5153
R_Calf  10.777 12.3992 45.5327
R_Foot  -1.03543 -4.63353 -1.89968
R_Toe0  -1.78853 -0.271299 -17.3236
303
root  0.863634 33.2469 -10.4167 -89.7092 -60.2841 -69.1797
Spine  -3.62905 0.0669264 8.27147
Spine1  -8.76131 13.3974 -28.6986
Neck  3.97569e-016 0 -2.38542e-015
Head  -10.3407 7.66942 -4.94823
R_Clavicle  -0.112673 24.3789 0.786536
R_UpperArm  62.8284 29.7481 1.42281
R_Forearm  76.4734 -3.75219 10.943
R_Hand  -10.5888 0.250481 -125.83
L_Clavicle  1.20474 -12.8961 -3.40374
L_UpperArm  -37.7497 -34.759 -11.3638
L_Forearm  -92.9674 -1.28376 6.00261
L_Hand  20.6063 -28.95 -81.27
L_Thigh  -10.3959 48.0359 16.6254
L_Calf  -16.5678 -9.25103 54.9094
L_Foot  -4.79504 5.04123 -25.4889
L_Toe0  0.505156 0.0344456 -6.1361
R_Thigh  -3.84573 -60.9131 22.372
R_Calf  12.1266 12.576 43.402
R_Foot  -1.54959 -6.29988 -1.52693
R_Toe0  -1.78853 -0.271281 -17.3236
304
root  1.72302 32.9749 -9.84367 -120.149 -59.9182 -56.4405
Spine  2.80054 9.02168 13.0159
Spine1  -0.424732 -3.79989 -29.5957
Neck  3.97569e-016 0 -2.38542e-015
Head  -15.9293 6.36097 -6.97339
R_Clavicle  -1.33659 21.6411 -2.53908
R_UpperArm  63.2084 25.0694 -0.627243
R_Forearm  81.5773 -4.74948 12.3945
R_Hand  -8.53339 -1.1014 -123.386
L_Clavicle  0.462549 -11.3673 -0.631195
L_UpperArm  -29.4975 -36.9127 -22.7253
L_Forearm  -82.2925 0.529722 7.28067
L_Hand  22.3904 -24.488 -96.7408
L_Thigh  -10.702 45.0559 14.8018
L_Calf  -13.8798 -9.09969 54.3854
L_Foot  -5.83015 2.66548 -29.9696
L_Toe0  0.505156 0.0344456 -6.1361
R_Thigh  -2.11511 -60.4274 19.7344
R_Calf  12.1107 12.4199 42.7581
R_Foot  -1.80476 -6.87737 -0.973568
R_Toe0  -1.78853 -0.271263 -17.3236
305
root  2.74054 32.3612 -9.73322 -150.505 -57.6864 -44.1916
Spine  10.4717 17.1988 18.6596
Spine1  9.20531 -21.4513 -32.1068
Neck  3.97569e-016 0 -2.38542e-015
Head  -20.6667 4.69781 -6.79894
R_Clavicle  -3.02686 18.3223 -7.77276
R_UpperArm  63.4078 21.5011 3.19178
R_Forearm  76.6819 -4.41315 10.7371
R_Hand  -29.4541 16.6944 -123.182
L_Clavicle  -0.194928 -7.36192 1.81342
L_UpperArm  -24.414 -37.7475 -31.4
L_Forearm  -64.7133 6.78866 12.9282
L_Hand  29.5579 -32.9286 -93.139
L_Thigh  -10.6101 41.3967 13.754
L_Calf  -9.75279 -8.87761 53.4492
L_Foot  -6.24503 1.90146 -32.0684
L_Toe0  0.505156 0.0344456 -6.1361
R_Thigh  -4.17965 -60.7036 21.4528
R_Calf  11.9206 12.4345 43.7946
R_Foot  -1.8478 -7.07066 -1.03258
R_Toe0  -1.78853 -0.271245 -17.3236
306
root  3.52373 31.211 -10.1086 179.976 -53.4374 -31.8685
Spine  18.279 22.6213 24.2963
Spine1  18.0763 -33.8324 -33.6869
Neck  3.97569e-016 0 -2.38542e-015
Head  -23.3718 5.05738 -5.64963
R_Clavicle  -3.55286 13.8381 -10.6305
R_UpperArm  61.2992 21.3884 6.93719
R_Forearm  61.1655 -9.37952 10.7027
R_Hand  -43.108 46.3422 -99.9168
L_Clavicle  -0.470336 -2.82245 3.31767
L_UpperArm  -23.072 -36.8493 -31.4229
L_Forearm  -53.7271 10.3685 14.5153
L_Hand  27.9139 -36.0091 -82.438
L_Thigh  -10.2039 37.9283 12.6248
L_Calf  -3.21551 -8.00738 51.6324
L_Foot  -6.32614 -2.11278 -33.2451
L_Toe0  0.505156 0.0344456 -6.1361
R_Thigh  -6.03383 -61.7617 25.5517
R_Calf  11.0019 11.9455 46.9965
R_Foot  -1.85369 -7.66923 -1.89927
R_Toe0  -1.78853 -0.271227 -17.3236
307
root  3.67272 29.4871 -10.6554 152.635 -45.3592 -19.8292
Spine  24.3691 26.0002 29.024
Spine1  22.7267 -38.4425 -32.2817
Neck  3.97569e-016 0 -2.38542e-015
Head  -21.974 7.83862 -2.67306
R_Clavicle  -2.91996 8.63377 -10.2783
R_UpperArm  48.6278 26.2024 2.18479
R_Forearm  35.1386 -23.2901 16.9212
R_Hand  -10.5949 40.5659 -40.2498
L_Clavicle  -0.479739 3.53173 3.57118
L_UpperArm  -24.0814 -36.2266 -22.6584
L_Forearm  -47.5009 11.6158 12.6163
L_Hand  26.7574 -35.9919 -80.2193
L_Thigh  -10.5491 35.5142 9.56323
L_Calf  4.27022 -6.83314 49.7301
L_Foot  -6.30632 -8.09452 -34.6958
L_Toe0  0.505156 0.0344456 -6.1361
R_Thigh  -5.69692 -62.3537 30.5599
R_Calf  8.99103 10.6928 50.5635
R_Foot  -1.77713 -8.42682 -3.36353
R_Toe0  -1.78853 -0.27121 -17.3236
308
root  3.14501 27.4017 -10.9532 130.983 -32.9994 -11.4361
Spine  27.9806 29.0947 32.5794
Spine1  22.5702 -37.0242 -28.7321
Neck  3.97569e-016 0 -2.38542e-015
Head  -15.9917 12.0051 4.26114
R_Clavicle  -2.44617 4.76372 -9.94683
R_UpperArm  25.6768 24.18 -3.40776
R_Forearm  24.2442 -27.2088 20.18
R_Hand  -3.48222 13.3143 -32.8485
L_Clavicle  -0.460232 10.1852 3.45719
L_UpperArm  -27.8063 -34.7719 -9.04808
L_Forearm  -41.1825 12.5122 11.8116
L_Hand  30.1435 -37.1786 -84.9476
L_Thigh  -11.1002 33.234 4.99467
L_Calf  9.51876 -5.53195 47.8964
L_Foot  -6.25433 -8.66656 -34.6955
L_Toe0  0.505156 0.0344456 -6.1361
R_Thigh  -7.85786 -62.0279 36.7081
R_Calf  7.87943 10.2812 51.7715
R_Foot  -1.7182 -9.67121 -5.24247
R_Toe0  -1.78853 -0.271192 -17.3236
